<svg id="Layer_1" data-name="Layer 1" xmlns="http://www.w3.org/2000/svg" viewBox="0 0 49.65 48.95"><rect id="research_bg" width="49.65" height="48.95" rx="3.24" style="fill:#8d7fb3"/><g id="g3518"><path id="path58241" d="M25.36,8.52A16.94,16.94,0,0,0,22,8.85v2.5A14.56,14.56,0,0,0,17.94,13L16.1,11.2a16.8,16.8,0,0,0-2.59,2.07,16.64,16.64,0,0,0-2.16,2.51l1.84,1.77a13.39,13.39,0,0,0-1.68,3.92H8.92a15.17,15.17,0,0,0,0,6.48h2.59a13.28,13.28,0,0,0,1.68,3.92l-1.84,1.78a17.07,17.07,0,0,0,2.16,2.5,16.86,16.86,0,0,0,2.59,2.08l1.84-1.78A14.26,14.26,0,0,0,22,38.07v2.51a17.27,17.27,0,0,0,6.72,0V38.07a14.14,14.14,0,0,0,4.06-1.62l1.84,1.78a17.44,17.44,0,0,0,2.6-2.08,17.63,17.63,0,0,0,2.15-2.5l-1.84-1.78A13.28,13.28,0,0,0,39.21,28h2.6a15.61,15.61,0,0,0,0-6.48h-2.6a13.39,13.39,0,0,0-1.68-3.92l1.84-1.77a17.17,17.17,0,0,0-2.15-2.51,17.38,17.38,0,0,0-2.6-2.07L32.78,13a14.43,14.43,0,0,0-4.06-1.62V8.85A16.94,16.94,0,0,0,25.36,8.52Zm0,8.09a8.25,8.25,0,0,1,8.39,8.1,8.25,8.25,0,0,1-8.39,8.1A8.25,8.25,0,0,1,17,24.71,8.25,8.25,0,0,1,25.36,16.61Z" style="fill:none;stroke:#fff;stroke-linecap:round;stroke-linejoin:round"/></g></svg>